<svg xmlns="http://www.w3.org/2000/svg" viewBox="0 0 1989 720">
<style>
  @import url("https://fonts.googleapis.com/css2?family=EB+Garamond:ital,wght@0,400;0,500;1,400&amp;family=IM+Fell+English:ital@0;1&amp;family=IM+Fell+English+SC&amp;display=swap");
  :root { --wall: #f4ecd8; --frame: #5a3a24; --shelf: #6b4a30; }
  g.book { opacity: 0; }
  @keyframes place_book {
    0%   { opacity: 0; transform: translateY(-40px); }
    65%  { opacity: 1; transform: translateY(4px); }
    100% { opacity: 1; transform: translateY(0); }
  }
  a.menu-book, a.activated-book { cursor: pointer; }
  a.menu-book text, g.nameplate text,
  a.activated-book text { pointer-events: none; user-select: none; }
  a.menu-book rect.spine,
  a.activated-book rect.spine { transition: filter 0.15s; }
  a.menu-book:hover rect.spine,
  a.activated-book:hover rect.spine { filter: brightness(1.25); }
</style>
<rect x="80" y="40" width="1829" height="650" fill="var(--wall, #f4ecd8)"/>
<rect x="96" y="240" width="1797" height="10" fill="var(--shelf, #6b4a30)"/>
<rect x="96" y="250" width="1797" height="3" fill="rgba(0,0,0,0.18)"/>
<rect x="96" y="440" width="1797" height="10" fill="var(--shelf, #6b4a30)"/>
<rect x="96" y="450" width="1797" height="3" fill="rgba(0,0,0,0.18)"/>
<rect x="96" y="640" width="1797" height="10" fill="var(--shelf, #6b4a30)"/>
<rect x="96" y="650" width="1797" height="3" fill="rgba(0,0,0,0.18)"/>
<g class="book shelf-0 book-g1">
<rect x="141.0" y="108" width="53" height="132" fill="#2d4a2d"/>
<rect x="142.0" y="108" width="51" height="2.5" fill="#e8d9b0"/>
<rect x="141.0" y="131" width="53" height="14" fill="#f0e0b8" opacity="0.55"/>
</g>
<g class="book shelf-0 book-g3">
<rect x="194.1" y="53" width="32" height="187" fill="#1f3a5f"/>
<rect x="195.1" y="53" width="30" height="2.5" fill="#e8d9b0"/>
</g>
<g class="book shelf-0 book-g1">
<rect x="227.9" y="38" width="44" height="202" fill="#a85c3a"/>
<rect x="228.9" y="38" width="42" height="2.5" fill="#e8d9b0"/>
<rect x="227.9" y="66" width="44" height="7" fill="#f0e0b8" opacity="0.55"/>
</g>
<g class="book shelf-0 book-g0">
<rect x="272.3" y="91" width="51" height="149" fill="#2d4a2d"/>
<rect x="273.3" y="91" width="49" height="2.5" fill="#e8d9b0"/>
<rect x="272.3" y="123" width="51" height="7" fill="#f0e0b8" opacity="0.55"/>
<rect x="272.3" y="99" width="51" height="2" fill="#c8a85a" opacity="0.8"/>
</g>
<g class="book shelf-0 book-g3">
<rect x="324.8" y="114" width="53" height="126" fill="#c8a85a"/>
<rect x="325.8" y="114" width="51" height="2.5" fill="#e8d9b0"/>
<rect x="324.8" y="136" width="53" height="9" fill="#111" opacity="0.55"/>
</g>
<g class="book shelf-0 book-g1">
<rect x="380.6" y="101" width="26" height="139" fill="#8b3a3a"/>
<rect x="381.6" y="101" width="24" height="2.5" fill="#e8d9b0"/>
<rect x="380.6" y="139" width="26" height="7" fill="#f0e0b8" opacity="0.55"/>
</g>
<g class="book shelf-0 book-g1">
<rect x="408.2" y="43" width="36" height="197" fill="#8b3a3a"/>
<rect x="409.2" y="43" width="34" height="2.5" fill="#e8d9b0"/>
<rect x="408.2" y="76" width="36" height="10" fill="#f0e0b8" opacity="0.55"/>
<line x1="411.2" y1="220" x2="441.2" y2="220" stroke="#000" stroke-width="0.5" opacity="0.3"/>
</g>
<g class="book shelf-0 book-g4">
<rect x="446.3" y="71" width="25" height="169" fill="#c8a85a"/>
<rect x="447.3" y="71" width="23" height="2.5" fill="#e8d9b0"/>
<rect x="446.3" y="109" width="25" height="13" fill="#111" opacity="0.55"/>
</g>
<g class="book shelf-0 book-g5">
<rect x="473.6" y="119" width="50" height="121" fill="#6b2d2d"/>
<rect x="474.6" y="119" width="48" height="2.5" fill="#e8d9b0"/>
<line x1="476.6" y1="220" x2="520.6" y2="220" stroke="#000" stroke-width="0.5" opacity="0.3"/>
</g>
<g class="book shelf-0 book-g4">
<rect x="525.1" y="89" width="45" height="151" fill="#7a4a2e"/>
<rect x="526.1" y="89" width="43" height="2.5" fill="#e8d9b0"/>
<line x1="528.1" y1="220" x2="567.1" y2="220" stroke="#000" stroke-width="0.5" opacity="0.3"/>
</g>
<g class="book shelf-0 book-g1">
<rect x="572.1" y="89" width="40" height="151" fill="#6b4a2d"/>
<rect x="573.1" y="89" width="38" height="2.5" fill="#e8d9b0"/>
<rect x="572.1" y="99" width="40" height="2" fill="#c8a85a" opacity="0.8"/>
</g>
<g class="book shelf-0 book-g1">
<rect x="614.7" y="127" width="49" height="113" fill="#c8a85a"/>
<rect x="615.7" y="127" width="47" height="2.5" fill="#e8d9b0"/>
<rect x="614.7" y="165" width="49" height="12" fill="#111" opacity="0.55"/>
</g>
<g class="book shelf-0 book-g1">
<rect x="665.2" y="71" width="46" height="169" fill="#2d4a2d"/>
<rect x="666.2" y="71" width="44" height="2.5" fill="#e8d9b0"/>
<rect x="665.2" y="106" width="46" height="7" fill="#f0e0b8" opacity="0.55"/>
<line x1="668.2" y1="220" x2="708.2" y2="220" stroke="#000" stroke-width="0.5" opacity="0.3"/>
</g>
<g class="book shelf-0 book-g5">
<rect x="713.4" y="59" width="52" height="181" fill="#3a3a3a"/>
<rect x="714.4" y="59" width="50" height="2.5" fill="#e8d9b0"/>
</g>
<g class="book shelf-0 book-g2">
<rect x="767.1" y="35" width="33" height="205" fill="#a85c3a"/>
<rect x="768.1" y="35" width="31" height="2.5" fill="#e8d9b0"/>
<rect x="767.1" y="62" width="33" height="14" fill="#f0e0b8" opacity="0.55"/>
</g>
<g class="book shelf-0 book-g5">
<rect x="801.0" y="57" width="44" height="183" fill="#2d4a2d"/>
<rect x="802.0" y="57" width="42" height="2.5" fill="#e8d9b0"/>
<rect x="801.0" y="66" width="44" height="2" fill="#c8a85a" opacity="0.8"/>
</g>
<g class="book shelf-0 book-g2">
<rect x="845.7" y="90" width="27" height="150" fill="#1f3a5f"/>
<rect x="846.7" y="90" width="25" height="2.5" fill="#e8d9b0"/>
<line x1="848.7" y1="220" x2="869.7" y2="220" stroke="#000" stroke-width="0.5" opacity="0.3"/>
<rect x="845.7" y="99" width="27" height="2" fill="#c8a85a" opacity="0.8"/>
</g>
<g class="book shelf-0 book-g2">
<rect x="873.5" y="75" width="45" height="165" fill="#3a3a3a"/>
<rect x="874.5" y="75" width="43" height="2.5" fill="#e8d9b0"/>
<rect x="873.5" y="112" width="45" height="12" fill="#f0e0b8" opacity="0.55"/>
<line x1="876.5" y1="220" x2="915.5" y2="220" stroke="#000" stroke-width="0.5" opacity="0.3"/>
</g>
<g class="book shelf-0 book-g2">
<rect x="919.3" y="35" width="30" height="205" fill="#9b7a2d"/>
<rect x="920.3" y="35" width="28" height="2.5" fill="#e8d9b0"/>
<rect x="919.3" y="57" width="30" height="12" fill="#f0e0b8" opacity="0.55"/>
<line x1="922.3" y1="220" x2="946.3" y2="220" stroke="#000" stroke-width="0.5" opacity="0.3"/>
</g>
<g class="book shelf-0 book-g3">
<rect x="951.2" y="109" width="51" height="131" fill="#c8a85a"/>
<rect x="952.2" y="109" width="49" height="2.5" fill="#e8d9b0"/>
</g>
<g class="book shelf-0 book-g2">
<rect x="1004.3" y="71" width="24" height="169" fill="#6b2d2d"/>
<rect x="1005.3" y="71" width="22" height="2.5" fill="#e8d9b0"/>
<rect x="1004.3" y="95" width="24" height="6" fill="#f0e0b8" opacity="0.55"/>
</g>
<g class="book shelf-0 book-g1">
<rect x="1028.5" y="78" width="31" height="162" fill="#4a2d4a"/>
<rect x="1029.5" y="78" width="29" height="2.5" fill="#e8d9b0"/>
</g>
<g class="book shelf-0 book-g5">
<rect x="1122.0" y="55" width="39" height="185" fill="#7a4a2e"/>
<rect x="1123.0" y="55" width="37" height="2.5" fill="#e8d9b0"/>
</g>
<g class="book shelf-0 book-g0">
<rect x="1163.4" y="55" width="38" height="185" fill="#8b3a3a"/>
<rect x="1164.4" y="55" width="36" height="2.5" fill="#e8d9b0"/>
<rect x="1163.4" y="88" width="38" height="6" fill="#f0e0b8" opacity="0.55"/>
</g>
<g class="book shelf-0 book-g3">
<rect x="1204.4" y="62" width="45" height="178" fill="#2d4a2d"/>
<rect x="1205.4" y="62" width="43" height="2.5" fill="#e8d9b0"/>
<rect x="1204.4" y="96" width="45" height="13" fill="#f0e0b8" opacity="0.55"/>
<line x1="1207.4" y1="220" x2="1246.4" y2="220" stroke="#000" stroke-width="0.5" opacity="0.3"/>
</g>
<g class="book shelf-0 book-g4">
<rect x="1251.1" y="123" width="54" height="117" fill="#a85c3a"/>
<rect x="1252.1" y="123" width="52" height="2.5" fill="#e8d9b0"/>
</g>
<g class="book shelf-0 book-g2">
<rect x="1307.5" y="51" width="29" height="189" fill="#9b7a2d"/>
<rect x="1308.5" y="51" width="27" height="2.5" fill="#e8d9b0"/>
<rect x="1307.5" y="75" width="29" height="6" fill="#f0e0b8" opacity="0.55"/>
</g>
<g class="book shelf-0 book-g0">
<rect x="1337.0" y="45" width="38" height="195" fill="#a85c3a"/>
<rect x="1338.0" y="45" width="36" height="2.5" fill="#e8d9b0"/>
<rect x="1337.0" y="81" width="38" height="9" fill="#f0e0b8" opacity="0.55"/>
<line x1="1340.0" y1="220" x2="1372.0" y2="220" stroke="#000" stroke-width="0.5" opacity="0.3"/>
</g>
<g class="book shelf-0 book-g3">
<rect x="1376.8" y="36" width="51" height="204" fill="#4a2d4a"/>
<rect x="1377.8" y="36" width="49" height="2.5" fill="#e8d9b0"/>
<rect x="1376.8" y="58" width="51" height="10" fill="#f0e0b8" opacity="0.55"/>
</g>
<g class="book shelf-0 book-g5">
<rect x="1428.4" y="122" width="54" height="118" fill="#8b3a3a"/>
<rect x="1429.4" y="122" width="52" height="2.5" fill="#e8d9b0"/>
<rect x="1428.4" y="161" width="54" height="8" fill="#f0e0b8" opacity="0.55"/>
</g>
<g class="book shelf-0 book-g2">
<rect x="1484.5" y="48" width="53" height="192" fill="#3a5f3a"/>
<rect x="1485.5" y="48" width="51" height="2.5" fill="#e8d9b0"/>
<rect x="1484.5" y="76" width="53" height="11" fill="#f0e0b8" opacity="0.55"/>
</g>
<g class="book shelf-0 book-g2">
<rect x="1578.6" y="130" width="27" height="110" fill="#3a3a3a"/>
<rect x="1579.6" y="130" width="25" height="2.5" fill="#e8d9b0"/>
<rect x="1578.6" y="140" width="27" height="2" fill="#c8a85a" opacity="0.8"/>
</g>
<g class="book shelf-0 book-g0">
<rect x="1608.4" y="105" width="43" height="135" fill="#a85c3a"/>
<rect x="1609.4" y="105" width="41" height="2.5" fill="#e8d9b0"/>
<rect x="1608.4" y="136" width="43" height="8" fill="#f0e0b8" opacity="0.55"/>
</g>
<g class="book shelf-0 book-g2">
<rect x="1719.9" y="105" width="41" height="135" fill="#6b2d2d"/>
<rect x="1720.9" y="105" width="39" height="2.5" fill="#e8d9b0"/>
<rect x="1719.9" y="145" width="41" height="8" fill="#f0e0b8" opacity="0.55"/>
</g>
<g class="book shelf-0 book-g1">
<rect x="1761.4" y="125" width="48" height="115" fill="#3a5f3a"/>
<rect x="1762.4" y="125" width="46" height="2.5" fill="#e8d9b0"/>
<rect x="1761.4" y="153" width="48" height="10" fill="#f0e0b8" opacity="0.55"/>
</g>
<g class="book shelf-0 book-g5">
<rect x="1811.9" y="104" width="49" height="136" fill="#3a3a3a"/>
<rect x="1812.9" y="104" width="47" height="2.5" fill="#e8d9b0"/>
<rect x="1811.9" y="132" width="49" height="11" fill="#f0e0b8" opacity="0.55"/>
<line x1="1814.9" y1="220" x2="1857.9" y2="220" stroke="#000" stroke-width="0.5" opacity="0.3"/>
<rect x="1811.9" y="113" width="49" height="2" fill="#c8a85a" opacity="0.8"/>
</g>
<g class="book shelf-1 book-g3">
<rect x="175.5" y="290" width="34" height="150" fill="#c8a85a"/>
<rect x="176.5" y="290" width="32" height="2.5" fill="#e8d9b0"/>
</g>
<g class="book shelf-1 book-g3">
<rect x="210.3" y="313" width="35" height="127" fill="#7a4a2e"/>
<rect x="211.3" y="313" width="33" height="2.5" fill="#e8d9b0"/>
<rect x="210.3" y="338" width="35" height="7" fill="#f0e0b8" opacity="0.55"/>
</g>
<g class="book shelf-1 book-g2">
<rect x="245.5" y="323" width="51" height="117" fill="#7a4a2e"/>
<rect x="246.5" y="323" width="49" height="2.5" fill="#e8d9b0"/>
<rect x="245.5" y="347" width="51" height="13" fill="#f0e0b8" opacity="0.55"/>
</g>
<g class="book shelf-1 book-g4">
<rect x="298.7" y="291" width="22" height="149" fill="#3a5f3a"/>
<rect x="299.7" y="291" width="20" height="2.5" fill="#e8d9b0"/>
<rect x="298.7" y="325" width="22" height="11" fill="#f0e0b8" opacity="0.55"/>
</g>
<g class="book shelf-1 book-g2">
<rect x="382.5" y="300" width="31" height="140" fill="#2c4a6b"/>
<rect x="383.5" y="300" width="29" height="2.5" fill="#e8d9b0"/>
<rect x="382.5" y="322" width="31" height="14" fill="#f0e0b8" opacity="0.55"/>
</g>
<g class="book shelf-1 book-g3">
<rect x="415.8" y="319" width="24" height="121" fill="#9b7a2d"/>
<rect x="416.8" y="319" width="22" height="2.5" fill="#e8d9b0"/>
<rect x="415.8" y="351" width="24" height="10" fill="#f0e0b8" opacity="0.55"/>
<line x1="418.8" y1="420" x2="436.8" y2="420" stroke="#000" stroke-width="0.5" opacity="0.3"/>
</g>
<g class="book shelf-1 book-g4">
<rect x="442.8" y="266" width="45" height="174" fill="#8b4a2d"/>
<rect x="443.8" y="266" width="43" height="2.5" fill="#e8d9b0"/>
<line x1="445.8" y1="420" x2="484.8" y2="420" stroke="#000" stroke-width="0.5" opacity="0.3"/>
<rect x="442.8" y="274" width="45" height="2" fill="#c8a85a" opacity="0.8"/>
</g>
<g class="book shelf-1 book-g3">
<rect x="489.2" y="279" width="29" height="161" fill="#3a5f3a"/>
<rect x="490.2" y="279" width="27" height="2.5" fill="#e8d9b0"/>
</g>
<g class="book shelf-1 book-g5">
<rect x="520.7" y="305" width="31" height="135" fill="#9b7a2d"/>
<rect x="521.7" y="305" width="29" height="2.5" fill="#e8d9b0"/>
<rect x="520.7" y="313" width="31" height="2" fill="#c8a85a" opacity="0.8"/>
</g>
<g class="book shelf-1 book-g0">
<rect x="552.5" y="308" width="37" height="132" fill="#3a3a3a"/>
<rect x="553.5" y="308" width="35" height="2.5" fill="#e8d9b0"/>
</g>
<g class="book shelf-1 book-g1">
<rect x="592.1" y="311" width="54" height="129" fill="#c8a85a"/>
<rect x="593.1" y="311" width="52" height="2.5" fill="#e8d9b0"/>
<rect x="592.1" y="339" width="54" height="8" fill="#111" opacity="0.55"/>
<line x1="595.1" y1="420" x2="643.1" y2="420" stroke="#000" stroke-width="0.5" opacity="0.3"/>
</g>
<g class="book shelf-1 book-g5">
<rect x="648.9" y="267" width="27" height="173" fill="#8b3a3a"/>
<rect x="649.9" y="267" width="25" height="2.5" fill="#e8d9b0"/>
<rect x="648.9" y="294" width="27" height="10" fill="#f0e0b8" opacity="0.55"/>
</g>
<g class="book shelf-1 book-g4">
<rect x="676.3" y="299" width="29" height="141" fill="#2d4a2d"/>
<rect x="677.3" y="299" width="27" height="2.5" fill="#e8d9b0"/>
<rect x="676.3" y="340" width="29" height="8" fill="#f0e0b8" opacity="0.55"/>
<line x1="679.3" y1="420" x2="702.3" y2="420" stroke="#000" stroke-width="0.5" opacity="0.3"/>
</g>
<g class="book shelf-1 book-g1">
<rect x="707.0" y="270" width="27" height="170" fill="#4a2d4a"/>
<rect x="708.0" y="270" width="25" height="2.5" fill="#e8d9b0"/>
</g>
<g class="book shelf-1 book-g1">
<rect x="734.7" y="295" width="49" height="145" fill="#4a2d4a"/>
<rect x="735.7" y="295" width="47" height="2.5" fill="#e8d9b0"/>
</g>
<g class="book shelf-1 book-g4">
<rect x="786.0" y="282" width="35" height="158" fill="#6b4a2d"/>
<rect x="787.0" y="282" width="33" height="2.5" fill="#e8d9b0"/>
<line x1="789.0" y1="420" x2="818.0" y2="420" stroke="#000" stroke-width="0.5" opacity="0.3"/>
</g>
<a href="/books/gone-with-the-wind" target="_top" class="activated-book">
  <g class="book activated shelf-1 book-g1">
    <rect class="spine" x="905.0" y="260" width="50" height="180" fill="#8b4a2d"/>
    <rect x="906.0" y="260" width="48" height="2.5" fill="#e8d9b0"/>
    <rect x="908.0" y="266" width="44" height="1.5" fill="#c8a85a" opacity="0.85"/>
    <rect x="908.0" y="432" width="44" height="1.5" fill="#c8a85a" opacity="0.85"/>
    <text x="930.0" y="350.0" transform="rotate(90 930.0 350.0)" text-anchor="middle" dominant-baseline="middle" font-family="IM Fell English SC, IM Fell English, serif" font-size="11" letter-spacing="1.5" fill="#f0e0b8">Gone with the Wind</text>
  </g>
</a>
<g class="book shelf-1 book-g3">
<rect x="960.4" y="272" width="48" height="168" fill="#d4c4a0"/>
<rect x="961.4" y="272" width="46" height="2.5" fill="#e8d9b0"/>
<rect x="960.4" y="285" width="48" height="2" fill="#c8a85a" opacity="0.8"/>
</g>
<g class="book shelf-1 book-g3">
<rect x="1010.6" y="255" width="45" height="185" fill="#3a5f3a"/>
<rect x="1011.6" y="255" width="43" height="2.5" fill="#e8d9b0"/>
<rect x="1010.6" y="287" width="45" height="7" fill="#f0e0b8" opacity="0.55"/>
</g>
<g class="book shelf-1 book-g0">
<rect x="1058.0" y="275" width="49" height="165" fill="#2c4a6b"/>
<rect x="1059.0" y="275" width="47" height="2.5" fill="#e8d9b0"/>
<rect x="1058.0" y="309" width="49" height="8" fill="#f0e0b8" opacity="0.55"/>
<line x1="1061.0" y1="420" x2="1104.0" y2="420" stroke="#000" stroke-width="0.5" opacity="0.3"/>
</g>
<g class="book shelf-1 book-g2">
<rect x="1109.9" y="268" width="45" height="172" fill="#3a3a3a"/>
<rect x="1110.9" y="268" width="43" height="2.5" fill="#e8d9b0"/>
<rect x="1109.9" y="293" width="45" height="12" fill="#f0e0b8" opacity="0.55"/>
</g>
<g class="book shelf-1 book-g5">
<rect x="1155.6" y="244" width="47" height="196" fill="#8b3a3a"/>
<rect x="1156.6" y="244" width="45" height="2.5" fill="#e8d9b0"/>
</g>
<g class="book shelf-1 book-g0">
<rect x="1204.3" y="258" width="24" height="182" fill="#8b4a2d"/>
<rect x="1205.3" y="258" width="22" height="2.5" fill="#e8d9b0"/>
</g>
<g class="book shelf-1 book-g5">
<rect x="1230.5" y="256" width="38" height="184" fill="#9b7a2d"/>
<rect x="1231.5" y="256" width="36" height="2.5" fill="#e8d9b0"/>
</g>
<g class="book shelf-1 book-g0">
<rect x="1271.5" y="241" width="35" height="199" fill="#2c4a6b"/>
<rect x="1272.5" y="241" width="33" height="2.5" fill="#e8d9b0"/>
</g>
<g class="book shelf-1 book-g0">
<rect x="1307.0" y="276" width="22" height="164" fill="#3a3a3a"/>
<rect x="1308.0" y="276" width="20" height="2.5" fill="#e8d9b0"/>
<rect x="1307.0" y="288" width="22" height="2" fill="#c8a85a" opacity="0.8"/>
</g>
<g class="book shelf-1 book-g5">
<rect x="1329.1" y="236" width="39" height="204" fill="#9b7a2d"/>
<rect x="1330.1" y="236" width="37" height="2.5" fill="#e8d9b0"/>
</g>
<g class="book shelf-1 book-g2">
<rect x="1369.6" y="322" width="32" height="118" fill="#1f3a5f"/>
<rect x="1370.6" y="322" width="30" height="2.5" fill="#e8d9b0"/>
<rect x="1369.6" y="361" width="32" height="10" fill="#f0e0b8" opacity="0.55"/>
</g>
<g class="book shelf-1 book-g2">
<rect x="1403.7" y="246" width="22" height="194" fill="#d4c4a0"/>
<rect x="1404.7" y="246" width="20" height="2.5" fill="#e8d9b0"/>
<rect x="1403.7" y="286" width="22" height="10" fill="#111" opacity="0.55"/>
</g>
<g class="book shelf-1 book-g2">
<rect x="1427.5" y="284" width="42" height="156" fill="#7a4a2e"/>
<rect x="1428.5" y="284" width="40" height="2.5" fill="#e8d9b0"/>
<rect x="1427.5" y="316" width="42" height="11" fill="#f0e0b8" opacity="0.55"/>
<rect x="1427.5" y="294" width="42" height="2" fill="#c8a85a" opacity="0.8"/>
</g>
<g class="book shelf-1 book-g3">
<rect x="1469.9" y="270" width="45" height="170" fill="#7a4a2e"/>
<rect x="1470.9" y="270" width="43" height="2.5" fill="#e8d9b0"/>
<rect x="1469.9" y="297" width="45" height="14" fill="#f0e0b8" opacity="0.55"/>
<line x1="1472.9" y1="420" x2="1511.9" y2="420" stroke="#000" stroke-width="0.5" opacity="0.3"/>
</g>
<g class="book shelf-1 book-g4">
<rect x="1515.7" y="277" width="36" height="163" fill="#2d4a2d"/>
<rect x="1516.7" y="277" width="34" height="2.5" fill="#e8d9b0"/>
<rect x="1515.7" y="316" width="36" height="10" fill="#f0e0b8" opacity="0.55"/>
<rect x="1515.7" y="290" width="36" height="2" fill="#c8a85a" opacity="0.8"/>
</g>
<g class="book shelf-1 book-g3">
<rect x="1552.0" y="258" width="49" height="182" fill="#6b2d2d"/>
<rect x="1553.0" y="258" width="47" height="2.5" fill="#e8d9b0"/>
<rect x="1552.0" y="283" width="49" height="6" fill="#f0e0b8" opacity="0.55"/>
</g>
<g class="book shelf-1 book-g2">
<rect x="1601.6" y="266" width="41" height="174" fill="#1f3a5f"/>
<rect x="1602.6" y="266" width="39" height="2.5" fill="#e8d9b0"/>
<rect x="1601.6" y="308" width="41" height="13" fill="#f0e0b8" opacity="0.55"/>
</g>
<g class="book shelf-1 book-g4">
<rect x="1642.9" y="311" width="25" height="129" fill="#2c4a6b"/>
<rect x="1643.9" y="311" width="23" height="2.5" fill="#e8d9b0"/>
</g>
<g class="book shelf-1 book-g5">
<rect x="1670.0" y="317" width="46" height="123" fill="#6b2d2d"/>
<rect x="1671.0" y="317" width="44" height="2.5" fill="#e8d9b0"/>
<line x1="1673.0" y1="420" x2="1713.0" y2="420" stroke="#000" stroke-width="0.5" opacity="0.3"/>
</g>
<g class="book shelf-1 book-g4">
<rect x="1718.0" y="253" width="49" height="187" fill="#4a2d4a"/>
<rect x="1719.0" y="253" width="47" height="2.5" fill="#e8d9b0"/>
<rect x="1718.0" y="280" width="49" height="7" fill="#f0e0b8" opacity="0.55"/>
</g>
<g class="book shelf-1 book-g5">
<rect x="1769.5" y="323" width="45" height="117" fill="#6b4a2d"/>
<rect x="1770.5" y="323" width="43" height="2.5" fill="#e8d9b0"/>
<rect x="1769.5" y="356" width="45" height="14" fill="#f0e0b8" opacity="0.55"/>
</g>
<g class="book shelf-1 book-g1">
<rect x="1817.1" y="318" width="46" height="122" fill="#6b4a2d"/>
<rect x="1818.1" y="318" width="44" height="2.5" fill="#e8d9b0"/>
</g>
<g class="book shelf-2 book-g2">
<rect x="122.8" y="475" width="39" height="165" fill="#6b2d2d"/>
<rect x="123.8" y="475" width="37" height="2.5" fill="#e8d9b0"/>
</g>
<g class="book shelf-2 book-g0">
<rect x="164.6" y="457" width="29" height="183" fill="#1f3a5f"/>
<rect x="165.6" y="457" width="27" height="2.5" fill="#e8d9b0"/>
<rect x="164.6" y="487" width="29" height="14" fill="#f0e0b8" opacity="0.55"/>
</g>
<g class="book shelf-2 book-g2">
<rect x="196.3" y="472" width="40" height="168" fill="#6b4a2d"/>
<rect x="197.3" y="472" width="38" height="2.5" fill="#e8d9b0"/>
<rect x="196.3" y="507" width="40" height="9" fill="#f0e0b8" opacity="0.55"/>
<rect x="196.3" y="485" width="40" height="2" fill="#c8a85a" opacity="0.8"/>
</g>
<g class="book shelf-2 book-g0">
<rect x="237.9" y="450" width="48" height="190" fill="#4a2d4a"/>
<rect x="238.9" y="450" width="46" height="2.5" fill="#e8d9b0"/>
<rect x="237.9" y="480" width="48" height="9" fill="#f0e0b8" opacity="0.55"/>
<rect x="237.9" y="460" width="48" height="2" fill="#c8a85a" opacity="0.8"/>
</g>
<g class="book shelf-2 book-g2">
<rect x="286.2" y="506" width="53" height="134" fill="#2c4a6b"/>
<rect x="287.2" y="506" width="51" height="2.5" fill="#e8d9b0"/>
<rect x="286.2" y="534" width="53" height="8" fill="#f0e0b8" opacity="0.55"/>
</g>
<g class="book shelf-2 book-g1">
<rect x="340.5" y="462" width="47" height="178" fill="#6b2d2d"/>
<rect x="341.5" y="462" width="45" height="2.5" fill="#e8d9b0"/>
<rect x="340.5" y="495" width="47" height="10" fill="#f0e0b8" opacity="0.55"/>
</g>
<g class="book shelf-2 book-g5">
<rect x="388.2" y="527" width="42" height="113" fill="#9b7a2d"/>
<rect x="389.2" y="527" width="40" height="2.5" fill="#e8d9b0"/>
</g>
<g class="book shelf-2 book-g4">
<rect x="430.4" y="484" width="33" height="156" fill="#c8a85a"/>
<rect x="431.4" y="484" width="31" height="2.5" fill="#e8d9b0"/>
<line x1="433.4" y1="620" x2="460.4" y2="620" stroke="#000" stroke-width="0.5" opacity="0.3"/>
</g>
<g class="book shelf-2 book-g4">
<rect x="463.5" y="456" width="49" height="184" fill="#2c4a6b"/>
<rect x="464.5" y="456" width="47" height="2.5" fill="#e8d9b0"/>
</g>
<g class="book shelf-2 book-g2">
<rect x="1438.8" y="521" width="46" height="119" fill="#4a2d4a"/>
<rect x="1439.8" y="521" width="44" height="2.5" fill="#e8d9b0"/>
<rect x="1438.8" y="559" width="46" height="6" fill="#f0e0b8" opacity="0.55"/>
</g>
<g class="book shelf-2 book-g0">
<rect x="1550.4" y="471" width="41" height="169" fill="#6b4a2d"/>
<rect x="1551.4" y="471" width="39" height="2.5" fill="#e8d9b0"/>
</g>
<g class="book shelf-2 book-g1">
<rect x="1593.2" y="499" width="29" height="141" fill="#9b7a2d"/>
<rect x="1594.2" y="499" width="27" height="2.5" fill="#e8d9b0"/>
<line x1="1596.2" y1="620" x2="1619.2" y2="620" stroke="#000" stroke-width="0.5" opacity="0.3"/>
<rect x="1593.2" y="512" width="29" height="2" fill="#c8a85a" opacity="0.8"/>
</g>
<g class="book shelf-2 book-g4">
<rect x="1624.7" y="436" width="53" height="204" fill="#8b4a2d"/>
<rect x="1625.7" y="436" width="51" height="2.5" fill="#e8d9b0"/>
</g>
<g class="book shelf-2 book-g5">
<rect x="1679.4" y="517" width="44" height="123" fill="#7a4a2e"/>
<rect x="1680.4" y="517" width="42" height="2.5" fill="#e8d9b0"/>
</g>
<g class="book shelf-2 book-g3">
<rect x="1726.3" y="497" width="49" height="143" fill="#1f3a5f"/>
<rect x="1727.3" y="497" width="47" height="2.5" fill="#e8d9b0"/>
<rect x="1726.3" y="534" width="49" height="14" fill="#f0e0b8" opacity="0.55"/>
</g>
<g class="book shelf-2 book-g5">
<rect x="1777.0" y="508" width="25" height="132" fill="#3a3a3a"/>
<rect x="1778.0" y="508" width="23" height="2.5" fill="#e8d9b0"/>
<rect x="1777.0" y="549" width="25" height="13" fill="#f0e0b8" opacity="0.55"/>
</g>
<g class="book shelf-2 book-g3">
<rect x="1804.3" y="508" width="54" height="132" fill="#6b2d2d"/>
<rect x="1805.3" y="508" width="52" height="2.5" fill="#e8d9b0"/>
<rect x="1804.3" y="534" width="54" height="13" fill="#f0e0b8" opacity="0.55"/>
</g>
<g class="book nameplate book-g9">
  <rect x="829.0" y="474" width="320" height="170" fill="rgba(0,0,0,0.22)"/>
  <rect x="825.0" y="470" width="320" height="170" fill="#5a3a24"/>
  <rect x="835.0" y="480" width="300" height="150" fill="#c8a85a"/>
  <rect x="841.0" y="486" width="288" height="138" fill="#f2ead0"/>
  <rect x="841.0" y="486" width="288" height="138" fill="none" stroke="#5a3a24" stroke-width="1"/>
  <text x="985" y="553.0" text-anchor="middle" font-family="IM Fell English, serif" font-size="42" font-weight="400" fill="#2f4a35">Daniel Golliher</text>
  <text x="985" y="585.0" text-anchor="middle" font-family="IM Fell English, serif" font-style="italic" font-size="15" fill="#5a5040">(how to say my last name: &#8220;gol-yer&#8221;)</text>
</g>
<a href="/about" target="_top" class="menu-book">
  <g class="book menu book-g10">
    <rect class="spine" x="1160.0" y="608.0" width="180" height="32" fill="#6b2d2d"/>
    <rect x="1160.0" y="610.0" width="3" height="28" fill="#e8d9b0" opacity="0.8"/>
    <rect x="1337.0" y="610.0" width="3" height="28" fill="#e8d9b0" opacity="0.8"/>
    <rect x="1167.0" y="613.0" width="166" height="1.5" fill="#c8a85a" opacity="0.85"/>
    <rect x="1167.0" y="633.5" width="166" height="1.5" fill="#c8a85a" opacity="0.85"/>
    <text x="1250.0" y="629.5" text-anchor="middle" font-family="IM Fell English SC, IM Fell English, serif" font-size="16" font-weight="400" letter-spacing="4" fill="#f0e0b8">ABOUT</text>
  </g>
</a>
<a href="/writing" target="_top" class="menu-book">
  <g class="book menu book-g11">
    <rect class="spine" x="1156.0" y="574.0" width="200" height="32" fill="#2d4a2d"/>
    <rect x="1156.0" y="576.0" width="3" height="28" fill="#e8d9b0" opacity="0.8"/>
    <rect x="1353.0" y="576.0" width="3" height="28" fill="#e8d9b0" opacity="0.8"/>
    <rect x="1163.0" y="579.0" width="186" height="1.5" fill="#c8a85a" opacity="0.85"/>
    <rect x="1163.0" y="599.5" width="186" height="1.5" fill="#c8a85a" opacity="0.85"/>
    <text x="1256.0" y="595.5" text-anchor="middle" font-family="IM Fell English SC, IM Fell English, serif" font-size="16" font-weight="400" letter-spacing="4" fill="#f0e0b8">WRITING</text>
  </g>
</a>
<a href="/" target="_top" class="menu-book">
  <g class="book menu book-g12">
    <rect class="spine" x="1161.0" y="540.0" width="170" height="32" fill="#1f3a5f"/>
    <rect x="1161.0" y="542.0" width="3" height="28" fill="#e8d9b0" opacity="0.8"/>
    <rect x="1328.0" y="542.0" width="3" height="28" fill="#e8d9b0" opacity="0.8"/>
    <rect x="1168.0" y="545.0" width="156" height="1.5" fill="#c8a85a" opacity="0.85"/>
    <rect x="1168.0" y="565.5" width="156" height="1.5" fill="#c8a85a" opacity="0.85"/>
    <text x="1246.0" y="561.5" text-anchor="middle" font-family="IM Fell English SC, IM Fell English, serif" font-size="16" font-weight="400" letter-spacing="4" fill="#f0e0b8">HOME</text>
  </g>
</a>
<g class="book photo book-g17">
  <rect x="639.0" y="509" width="180" height="135" fill="rgba(0,0,0,0.25)"/>
  <rect x="635.0" y="505" width="180" height="135" fill="#5a3a24"/>
  <rect x="640.0" y="510" width="170" height="125" fill="#c8a85a"/>
  <rect x="644.0" y="514" width="162" height="117" fill="#f2ead0"/>
  <image href="daniel.jpg" x="645.0" y="519.2" width="160" height="106.7" preserveAspectRatio="xMidYMid slice"/>
</g>
<g class="book boroughs book-g15">
  <rect x="578.0" y="543" width="100" height="100" fill="rgba(0,0,0,0.22)"/>
  <rect x="575.0" y="540" width="100" height="100" fill="#5a3a24"/>
  <rect x="581.0" y="546" width="88" height="88" fill="#f4ecd8"/>
  <image href="nyc-boroughs.png" x="585.0" y="550" width="80" height="80" preserveAspectRatio="xMidYMid meet"/>
</g>
<g class="book flag book-g16">
  <ellipse cx="1390" cy="640" rx="18" ry="2" fill="rgba(0,0,0,0.25)"/>
  <rect x="1376" y="633" width="28" height="7" fill="#5a3a24" rx="1.5"/>
  <rect x="1376" y="633" width="28" height="2" fill="#6b4a2e"/>
  <rect x="1389" y="510" width="2.5" height="123" fill="#8a6a3a"/>
  <circle cx="1390.25" cy="508" r="2.8" fill="#c8a85a"/>
  <rect x="1392" y="518" width="70" height="42" fill="#ffffff"/>
  <rect x="1392" y="518.00" width="70" height="3.23" fill="#b22234"/>
  <rect x="1392" y="524.46" width="70" height="3.23" fill="#b22234"/>
  <rect x="1392" y="530.92" width="70" height="3.23" fill="#b22234"/>
  <rect x="1392" y="537.38" width="70" height="3.23" fill="#b22234"/>
  <rect x="1392" y="543.85" width="70" height="3.23" fill="#b22234"/>
  <rect x="1392" y="550.31" width="70" height="3.23" fill="#b22234"/>
  <rect x="1392" y="556.77" width="70" height="3.23" fill="#b22234"/>
  <rect x="1392" y="518" width="28.00" height="22.62" fill="#3c3b6e"/>
  <circle cx="1397.00" cy="523.00" r="1.1" fill="white"/>
  <circle cx="1405.00" cy="523.00" r="1.1" fill="white"/>
  <circle cx="1413.00" cy="523.00" r="1.1" fill="white"/>
  <circle cx="1397.00" cy="529.50" r="1.1" fill="white"/>
  <circle cx="1405.00" cy="529.50" r="1.1" fill="white"/>
  <circle cx="1413.00" cy="529.50" r="1.1" fill="white"/>
  <circle cx="1397.00" cy="536.00" r="1.1" fill="white"/>
  <circle cx="1405.00" cy="536.00" r="1.1" fill="white"/>
  <circle cx="1413.00" cy="536.00" r="1.1" fill="white"/>
  <rect x="1392" y="518" width="70" height="42" fill="none" stroke="rgba(0,0,0,0.25)" stroke-width="0.5"/>
</g>
<g class="book pigeon book-g13">
  <ellipse cx="1246" cy="540" rx="34" ry="2.5" fill="rgba(0,0,0,0.22)"/>
  <line x1="1236" y1="532" x2="1234" y2="540" stroke="#b97a56" stroke-width="2.2" stroke-linecap="round"/>
  <line x1="1256" y1="532" x2="1258" y2="540" stroke="#b97a56" stroke-width="2.2" stroke-linecap="round"/>
  <path d="M 1272 505 L 1296 513 L 1296 525 L 1272 521 Z" fill="#556069"/>
  <ellipse cx="1246" cy="515" rx="32" ry="22" fill="#7c8b96"/>
  <ellipse cx="1236" cy="521" rx="17" ry="14" fill="#b2bec8" opacity="0.75"/>
  <path d="M 1232 499 Q 1250 495 1268 507 Q 1264 525 1242 523 Q 1226 513 1232 499 Z" fill="#6b7a85"/>
  <path d="M 1238 513 L 1262 514" stroke="#4a5560" stroke-width="0.8" opacity="0.7"/>
  <ellipse cx="1228" cy="499" rx="12" ry="11" fill="#4a5862"/>
  <ellipse cx="1226" cy="497" rx="8" ry="4" fill="#5a6975" opacity="0.7"/>
  <circle cx="1218" cy="490" r="11" fill="#5d6a76"/>
  <path d="M 1207 491 L 1197 493 L 1198 489 L 1207 488 Z" fill="#2e2620"/>
  <ellipse cx="1206" cy="487" rx="3.5" ry="1.8" fill="#d6cec4"/>
  <circle cx="1215" cy="488" r="2.2" fill="#ff9d2a"/>
  <circle cx="1215" cy="488" r="1.1" fill="#141414"/>
</g>
<rect x="80" y="40" width="16" height="650" fill="var(--frame, #5a3a24)"/>
<rect x="1893" y="40" width="16" height="650" fill="var(--frame, #5a3a24)"/>
<rect x="80" y="40" width="1829" height="16" fill="var(--frame, #5a3a24)"/>
<rect x="80" y="674" width="1829" height="16" fill="var(--frame, #5a3a24)"/>
<line x1="83" y1="60" x2="93" y2="66" stroke="rgba(0,0,0,0.12)" stroke-width="0.6"/>
<line x1="83" y1="100" x2="93" y2="115" stroke="rgba(0,0,0,0.12)" stroke-width="0.6"/>
<line x1="83" y1="140" x2="93" y2="147" stroke="rgba(0,0,0,0.12)" stroke-width="0.6"/>
<line x1="83" y1="180" x2="93" y2="185" stroke="rgba(0,0,0,0.12)" stroke-width="0.6"/>
<line x1="83" y1="220" x2="93" y2="232" stroke="rgba(0,0,0,0.12)" stroke-width="0.6"/>
<line x1="83" y1="260" x2="93" y2="272" stroke="rgba(0,0,0,0.12)" stroke-width="0.6"/>
<line x1="83" y1="300" x2="93" y2="307" stroke="rgba(0,0,0,0.12)" stroke-width="0.6"/>
<line x1="83" y1="340" x2="93" y2="345" stroke="rgba(0,0,0,0.12)" stroke-width="0.6"/>
<line x1="83" y1="380" x2="93" y2="385" stroke="rgba(0,0,0,0.12)" stroke-width="0.6"/>
<line x1="83" y1="420" x2="93" y2="435" stroke="rgba(0,0,0,0.12)" stroke-width="0.6"/>
<line x1="83" y1="460" x2="93" y2="465" stroke="rgba(0,0,0,0.12)" stroke-width="0.6"/>
<line x1="83" y1="500" x2="93" y2="507" stroke="rgba(0,0,0,0.12)" stroke-width="0.6"/>
<line x1="83" y1="540" x2="93" y2="549" stroke="rgba(0,0,0,0.12)" stroke-width="0.6"/>
<line x1="83" y1="580" x2="93" y2="594" stroke="rgba(0,0,0,0.12)" stroke-width="0.6"/>
<line x1="83" y1="620" x2="93" y2="630" stroke="rgba(0,0,0,0.12)" stroke-width="0.6"/>
<line x1="83" y1="660" x2="93" y2="669" stroke="rgba(0,0,0,0.12)" stroke-width="0.6"/>
<line x1="1896" y1="60" x2="1906" y2="67" stroke="rgba(0,0,0,0.12)" stroke-width="0.6"/>
<line x1="1896" y1="100" x2="1906" y2="113" stroke="rgba(0,0,0,0.12)" stroke-width="0.6"/>
<line x1="1896" y1="140" x2="1906" y2="151" stroke="rgba(0,0,0,0.12)" stroke-width="0.6"/>
<line x1="1896" y1="180" x2="1906" y2="190" stroke="rgba(0,0,0,0.12)" stroke-width="0.6"/>
<line x1="1896" y1="220" x2="1906" y2="225" stroke="rgba(0,0,0,0.12)" stroke-width="0.6"/>
<line x1="1896" y1="260" x2="1906" y2="270" stroke="rgba(0,0,0,0.12)" stroke-width="0.6"/>
<line x1="1896" y1="300" x2="1906" y2="314" stroke="rgba(0,0,0,0.12)" stroke-width="0.6"/>
<line x1="1896" y1="340" x2="1906" y2="350" stroke="rgba(0,0,0,0.12)" stroke-width="0.6"/>
<line x1="1896" y1="380" x2="1906" y2="392" stroke="rgba(0,0,0,0.12)" stroke-width="0.6"/>
<line x1="1896" y1="420" x2="1906" y2="427" stroke="rgba(0,0,0,0.12)" stroke-width="0.6"/>
<line x1="1896" y1="460" x2="1906" y2="474" stroke="rgba(0,0,0,0.12)" stroke-width="0.6"/>
<line x1="1896" y1="500" x2="1906" y2="509" stroke="rgba(0,0,0,0.12)" stroke-width="0.6"/>
<line x1="1896" y1="540" x2="1906" y2="555" stroke="rgba(0,0,0,0.12)" stroke-width="0.6"/>
<line x1="1896" y1="580" x2="1906" y2="590" stroke="rgba(0,0,0,0.12)" stroke-width="0.6"/>
<line x1="1896" y1="620" x2="1906" y2="629" stroke="rgba(0,0,0,0.12)" stroke-width="0.6"/>
<line x1="1896" y1="660" x2="1906" y2="667" stroke="rgba(0,0,0,0.12)" stroke-width="0.6"/>
</svg>