<svg xmlns="http://www.w3.org/2000/svg" viewBox="0 0 1989 720">
<style>
  @import url("https://fonts.googleapis.com/css2?family=EB+Garamond:ital,wght@0,400;0,500;1,400&amp;family=IM+Fell+English:ital@0;1&amp;family=IM+Fell+English+SC&amp;display=swap");
  :root { --wall: #f4ecd8; --frame: #5a3a24; --shelf: #6b4a30; }
  g.book { opacity: 0; }
  @keyframes place_book {
    0%   { opacity: 0; transform: translateY(-40px); }
    65%  { opacity: 1; transform: translateY(4px); }
    100% { opacity: 1; transform: translateY(0); }
  }
  a.menu-book { cursor: pointer; }
  a.menu-book text, g.nameplate text { pointer-events: none; user-select: none; }
  a.menu-book rect.spine { transition: filter 0.15s; }
  a.menu-book:hover rect.spine { filter: brightness(1.2); }
</style>
<rect x="80" y="40" width="1829" height="650" fill="var(--wall, #f4ecd8)"/>
<rect x="96" y="240" width="1797" height="10" fill="var(--shelf, #6b4a30)"/>
<rect x="96" y="250" width="1797" height="3" fill="rgba(0,0,0,0.18)"/>
<rect x="96" y="440" width="1797" height="10" fill="var(--shelf, #6b4a30)"/>
<rect x="96" y="450" width="1797" height="3" fill="rgba(0,0,0,0.18)"/>
<rect x="96" y="640" width="1797" height="10" fill="var(--shelf, #6b4a30)"/>
<rect x="96" y="650" width="1797" height="3" fill="rgba(0,0,0,0.18)"/>
<g class="book shelf-0 book-g1">
<rect x="124.4" y="108" width="53" height="132" fill="#2d4a2d"/>
<rect x="125.4" y="108" width="51" height="2.5" fill="#e8d9b0"/>
<rect x="124.4" y="131" width="53" height="14" fill="#f0e0b8" opacity="0.55"/>
</g>
<g class="book shelf-0 book-g3">
<rect x="177.5" y="53" width="32" height="187" fill="#1f3a5f"/>
<rect x="178.5" y="53" width="30" height="2.5" fill="#e8d9b0"/>
</g>
<g class="book shelf-0 book-g1">
<rect x="211.3" y="38" width="44" height="202" fill="#a85c3a"/>
<rect x="212.3" y="38" width="42" height="2.5" fill="#e8d9b0"/>
<rect x="211.3" y="66" width="44" height="7" fill="#f0e0b8" opacity="0.55"/>
</g>
<g class="book shelf-0 book-g0">
<rect x="255.7" y="91" width="51" height="149" fill="#2d4a2d"/>
<rect x="256.7" y="91" width="49" height="2.5" fill="#e8d9b0"/>
<rect x="255.7" y="123" width="51" height="7" fill="#f0e0b8" opacity="0.55"/>
<rect x="255.7" y="99" width="51" height="2" fill="#c8a85a" opacity="0.8"/>
</g>
<g class="book shelf-0 book-g3">
<rect x="308.2" y="114" width="53" height="126" fill="#c8a85a"/>
<rect x="309.2" y="114" width="51" height="2.5" fill="#e8d9b0"/>
<rect x="308.2" y="136" width="53" height="9" fill="#111" opacity="0.55"/>
</g>
<g class="book shelf-0 book-g1">
<rect x="364.0" y="101" width="26" height="139" fill="#8b3a3a"/>
<rect x="365.0" y="101" width="24" height="2.5" fill="#e8d9b0"/>
<rect x="364.0" y="139" width="26" height="7" fill="#f0e0b8" opacity="0.55"/>
</g>
<g class="book shelf-0 book-g1">
<rect x="391.6" y="43" width="36" height="197" fill="#8b3a3a"/>
<rect x="392.6" y="43" width="34" height="2.5" fill="#e8d9b0"/>
<rect x="391.6" y="76" width="36" height="10" fill="#f0e0b8" opacity="0.55"/>
<line x1="394.6" y1="220" x2="424.6" y2="220" stroke="#000" stroke-width="0.5" opacity="0.3"/>
</g>
<g class="book shelf-0 book-g4">
<rect x="429.7" y="71" width="25" height="169" fill="#c8a85a"/>
<rect x="430.7" y="71" width="23" height="2.5" fill="#e8d9b0"/>
<rect x="429.7" y="109" width="25" height="13" fill="#111" opacity="0.55"/>
</g>
<g class="book shelf-0 book-g5">
<rect x="457.0" y="119" width="50" height="121" fill="#6b2d2d"/>
<rect x="458.0" y="119" width="48" height="2.5" fill="#e8d9b0"/>
<line x1="460.0" y1="220" x2="504.0" y2="220" stroke="#000" stroke-width="0.5" opacity="0.3"/>
</g>
<g class="book shelf-0 book-g4">
<rect x="508.5" y="89" width="45" height="151" fill="#7a4a2e"/>
<rect x="509.5" y="89" width="43" height="2.5" fill="#e8d9b0"/>
<line x1="511.5" y1="220" x2="550.5" y2="220" stroke="#000" stroke-width="0.5" opacity="0.3"/>
</g>
<g class="book shelf-0 book-g1">
<rect x="555.5" y="89" width="40" height="151" fill="#6b4a2d"/>
<rect x="556.5" y="89" width="38" height="2.5" fill="#e8d9b0"/>
<rect x="555.5" y="99" width="40" height="2" fill="#c8a85a" opacity="0.8"/>
</g>
<g class="book shelf-0 book-g1">
<rect x="598.1" y="127" width="49" height="113" fill="#c8a85a"/>
<rect x="599.1" y="127" width="47" height="2.5" fill="#e8d9b0"/>
<rect x="598.1" y="165" width="49" height="12" fill="#111" opacity="0.55"/>
</g>
<g class="book shelf-0 book-g1">
<rect x="648.6" y="71" width="46" height="169" fill="#2d4a2d"/>
<rect x="649.6" y="71" width="44" height="2.5" fill="#e8d9b0"/>
<rect x="648.6" y="106" width="46" height="7" fill="#f0e0b8" opacity="0.55"/>
<line x1="651.6" y1="220" x2="691.6" y2="220" stroke="#000" stroke-width="0.5" opacity="0.3"/>
</g>
<g class="book shelf-0 book-g5">
<rect x="696.8" y="59" width="52" height="181" fill="#3a3a3a"/>
<rect x="697.8" y="59" width="50" height="2.5" fill="#e8d9b0"/>
</g>
<g class="book shelf-0 book-g2">
<rect x="750.5" y="35" width="33" height="205" fill="#a85c3a"/>
<rect x="751.5" y="35" width="31" height="2.5" fill="#e8d9b0"/>
<rect x="750.5" y="62" width="33" height="14" fill="#f0e0b8" opacity="0.55"/>
</g>
<g class="book shelf-0 book-g5">
<rect x="784.4" y="57" width="44" height="183" fill="#2d4a2d"/>
<rect x="785.4" y="57" width="42" height="2.5" fill="#e8d9b0"/>
<rect x="784.4" y="66" width="44" height="2" fill="#c8a85a" opacity="0.8"/>
</g>
<g class="book shelf-0 book-g2">
<rect x="829.1" y="90" width="27" height="150" fill="#1f3a5f"/>
<rect x="830.1" y="90" width="25" height="2.5" fill="#e8d9b0"/>
<line x1="832.1" y1="220" x2="853.1" y2="220" stroke="#000" stroke-width="0.5" opacity="0.3"/>
<rect x="829.1" y="99" width="27" height="2" fill="#c8a85a" opacity="0.8"/>
</g>
<g class="book shelf-0 book-g2">
<rect x="856.9" y="75" width="45" height="165" fill="#3a3a3a"/>
<rect x="857.9" y="75" width="43" height="2.5" fill="#e8d9b0"/>
<rect x="856.9" y="112" width="45" height="12" fill="#f0e0b8" opacity="0.55"/>
<line x1="859.9" y1="220" x2="898.9" y2="220" stroke="#000" stroke-width="0.5" opacity="0.3"/>
</g>
<g class="book shelf-0 book-g2">
<rect x="902.7" y="35" width="30" height="205" fill="#9b7a2d"/>
<rect x="903.7" y="35" width="28" height="2.5" fill="#e8d9b0"/>
<rect x="902.7" y="57" width="30" height="12" fill="#f0e0b8" opacity="0.55"/>
<line x1="905.7" y1="220" x2="929.7" y2="220" stroke="#000" stroke-width="0.5" opacity="0.3"/>
</g>
<g class="book shelf-0 book-g3">
<rect x="934.6" y="109" width="51" height="131" fill="#c8a85a"/>
<rect x="935.6" y="109" width="49" height="2.5" fill="#e8d9b0"/>
</g>
<g class="book shelf-0 book-g2">
<rect x="987.7" y="71" width="24" height="169" fill="#6b2d2d"/>
<rect x="988.7" y="71" width="22" height="2.5" fill="#e8d9b0"/>
<rect x="987.7" y="95" width="24" height="6" fill="#f0e0b8" opacity="0.55"/>
</g>
<g class="book shelf-0 book-g1">
<rect x="1011.9" y="78" width="31" height="162" fill="#4a2d4a"/>
<rect x="1012.9" y="78" width="29" height="2.5" fill="#e8d9b0"/>
</g>
<g class="book shelf-0 book-g5">
<rect x="1105.4" y="55" width="39" height="185" fill="#7a4a2e"/>
<rect x="1106.4" y="55" width="37" height="2.5" fill="#e8d9b0"/>
</g>
<g class="book shelf-0 book-g0">
<rect x="1146.9" y="55" width="38" height="185" fill="#8b3a3a"/>
<rect x="1147.9" y="55" width="36" height="2.5" fill="#e8d9b0"/>
<rect x="1146.9" y="88" width="38" height="6" fill="#f0e0b8" opacity="0.55"/>
</g>
<g class="book shelf-0 book-g3">
<rect x="1187.8" y="62" width="45" height="178" fill="#2d4a2d"/>
<rect x="1188.8" y="62" width="43" height="2.5" fill="#e8d9b0"/>
<rect x="1187.8" y="96" width="45" height="13" fill="#f0e0b8" opacity="0.55"/>
<line x1="1190.8" y1="220" x2="1229.8" y2="220" stroke="#000" stroke-width="0.5" opacity="0.3"/>
</g>
<g class="book shelf-0 book-g4">
<rect x="1234.5" y="123" width="54" height="117" fill="#a85c3a"/>
<rect x="1235.5" y="123" width="52" height="2.5" fill="#e8d9b0"/>
</g>
<g class="book shelf-0 book-g2">
<rect x="1290.9" y="51" width="29" height="189" fill="#9b7a2d"/>
<rect x="1291.9" y="51" width="27" height="2.5" fill="#e8d9b0"/>
<rect x="1290.9" y="75" width="29" height="6" fill="#f0e0b8" opacity="0.55"/>
</g>
<g class="book shelf-0 book-g0">
<rect x="1320.4" y="45" width="38" height="195" fill="#a85c3a"/>
<rect x="1321.4" y="45" width="36" height="2.5" fill="#e8d9b0"/>
<rect x="1320.4" y="81" width="38" height="9" fill="#f0e0b8" opacity="0.55"/>
<line x1="1323.4" y1="220" x2="1355.4" y2="220" stroke="#000" stroke-width="0.5" opacity="0.3"/>
</g>
<g class="book shelf-0 book-g3">
<rect x="1360.2" y="36" width="51" height="204" fill="#4a2d4a"/>
<rect x="1361.2" y="36" width="49" height="2.5" fill="#e8d9b0"/>
<rect x="1360.2" y="58" width="51" height="10" fill="#f0e0b8" opacity="0.55"/>
</g>
<g class="book shelf-0 book-g5">
<rect x="1411.8" y="122" width="54" height="118" fill="#8b3a3a"/>
<rect x="1412.8" y="122" width="52" height="2.5" fill="#e8d9b0"/>
<rect x="1411.8" y="161" width="54" height="8" fill="#f0e0b8" opacity="0.55"/>
</g>
<g class="book shelf-0 book-g2">
<rect x="1467.9" y="48" width="53" height="192" fill="#3a5f3a"/>
<rect x="1468.9" y="48" width="51" height="2.5" fill="#e8d9b0"/>
<rect x="1467.9" y="76" width="53" height="11" fill="#f0e0b8" opacity="0.55"/>
</g>
<g class="book shelf-0 book-g2">
<rect x="1562.0" y="130" width="27" height="110" fill="#3a3a3a"/>
<rect x="1563.0" y="130" width="25" height="2.5" fill="#e8d9b0"/>
<rect x="1562.0" y="140" width="27" height="2" fill="#c8a85a" opacity="0.8"/>
</g>
<g class="book shelf-0 book-g0">
<rect x="1591.8" y="105" width="43" height="135" fill="#a85c3a"/>
<rect x="1592.8" y="105" width="41" height="2.5" fill="#e8d9b0"/>
<rect x="1591.8" y="136" width="43" height="8" fill="#f0e0b8" opacity="0.55"/>
</g>
<g class="book shelf-0 book-g2">
<rect x="1703.3" y="105" width="41" height="135" fill="#6b2d2d"/>
<rect x="1704.3" y="105" width="39" height="2.5" fill="#e8d9b0"/>
<rect x="1703.3" y="145" width="41" height="8" fill="#f0e0b8" opacity="0.55"/>
</g>
<g class="book shelf-0 book-g1">
<rect x="1744.8" y="125" width="48" height="115" fill="#3a5f3a"/>
<rect x="1745.8" y="125" width="46" height="2.5" fill="#e8d9b0"/>
<rect x="1744.8" y="153" width="48" height="10" fill="#f0e0b8" opacity="0.55"/>
</g>
<g class="book shelf-0 book-g5">
<rect x="1795.3" y="104" width="49" height="136" fill="#3a3a3a"/>
<rect x="1796.3" y="104" width="47" height="2.5" fill="#e8d9b0"/>
<rect x="1795.3" y="132" width="49" height="11" fill="#f0e0b8" opacity="0.55"/>
<line x1="1798.3" y1="220" x2="1841.3" y2="220" stroke="#000" stroke-width="0.5" opacity="0.3"/>
<rect x="1795.3" y="113" width="49" height="2" fill="#c8a85a" opacity="0.8"/>
</g>
<g class="book shelf-1 book-g3">
<rect x="175.5" y="290" width="34" height="150" fill="#c8a85a"/>
<rect x="176.5" y="290" width="32" height="2.5" fill="#e8d9b0"/>
</g>
<g class="book shelf-1 book-g3">
<rect x="210.3" y="313" width="35" height="127" fill="#7a4a2e"/>
<rect x="211.3" y="313" width="33" height="2.5" fill="#e8d9b0"/>
<rect x="210.3" y="338" width="35" height="7" fill="#f0e0b8" opacity="0.55"/>
</g>
<g class="book shelf-1 book-g2">
<rect x="245.5" y="323" width="51" height="117" fill="#7a4a2e"/>
<rect x="246.5" y="323" width="49" height="2.5" fill="#e8d9b0"/>
<rect x="245.5" y="347" width="51" height="13" fill="#f0e0b8" opacity="0.55"/>
</g>
<g class="book shelf-1 book-g4">
<rect x="298.7" y="291" width="22" height="149" fill="#3a5f3a"/>
<rect x="299.7" y="291" width="20" height="2.5" fill="#e8d9b0"/>
<rect x="298.7" y="325" width="22" height="11" fill="#f0e0b8" opacity="0.55"/>
</g>
<g class="book shelf-1 book-g2">
<rect x="382.5" y="300" width="31" height="140" fill="#2c4a6b"/>
<rect x="383.5" y="300" width="29" height="2.5" fill="#e8d9b0"/>
<rect x="382.5" y="322" width="31" height="14" fill="#f0e0b8" opacity="0.55"/>
</g>
<g class="book shelf-1 book-g3">
<rect x="415.8" y="319" width="24" height="121" fill="#9b7a2d"/>
<rect x="416.8" y="319" width="22" height="2.5" fill="#e8d9b0"/>
<rect x="415.8" y="351" width="24" height="10" fill="#f0e0b8" opacity="0.55"/>
<line x1="418.8" y1="420" x2="436.8" y2="420" stroke="#000" stroke-width="0.5" opacity="0.3"/>
</g>
<g class="book shelf-1 book-g4">
<rect x="442.8" y="266" width="45" height="174" fill="#8b4a2d"/>
<rect x="443.8" y="266" width="43" height="2.5" fill="#e8d9b0"/>
<line x1="445.8" y1="420" x2="484.8" y2="420" stroke="#000" stroke-width="0.5" opacity="0.3"/>
<rect x="442.8" y="274" width="45" height="2" fill="#c8a85a" opacity="0.8"/>
</g>
<g class="book shelf-1 book-g3">
<rect x="489.2" y="279" width="29" height="161" fill="#3a5f3a"/>
<rect x="490.2" y="279" width="27" height="2.5" fill="#e8d9b0"/>
</g>
<g class="book shelf-1 book-g5">
<rect x="520.7" y="305" width="31" height="135" fill="#9b7a2d"/>
<rect x="521.7" y="305" width="29" height="2.5" fill="#e8d9b0"/>
<rect x="520.7" y="313" width="31" height="2" fill="#c8a85a" opacity="0.8"/>
</g>
<g class="book shelf-1 book-g0">
<rect x="552.5" y="308" width="37" height="132" fill="#3a3a3a"/>
<rect x="553.5" y="308" width="35" height="2.5" fill="#e8d9b0"/>
</g>
<g class="book shelf-1 book-g1">
<rect x="592.1" y="311" width="54" height="129" fill="#c8a85a"/>
<rect x="593.1" y="311" width="52" height="2.5" fill="#e8d9b0"/>
<rect x="592.1" y="339" width="54" height="8" fill="#111" opacity="0.55"/>
<line x1="595.1" y1="420" x2="643.1" y2="420" stroke="#000" stroke-width="0.5" opacity="0.3"/>
</g>
<g class="book shelf-1 book-g5">
<rect x="648.9" y="267" width="27" height="173" fill="#8b3a3a"/>
<rect x="649.9" y="267" width="25" height="2.5" fill="#e8d9b0"/>
<rect x="648.9" y="294" width="27" height="10" fill="#f0e0b8" opacity="0.55"/>
</g>
<g class="book shelf-1 book-g4">
<rect x="676.3" y="299" width="29" height="141" fill="#2d4a2d"/>
<rect x="677.3" y="299" width="27" height="2.5" fill="#e8d9b0"/>
<rect x="676.3" y="340" width="29" height="8" fill="#f0e0b8" opacity="0.55"/>
<line x1="679.3" y1="420" x2="702.3" y2="420" stroke="#000" stroke-width="0.5" opacity="0.3"/>
</g>
<g class="book shelf-1 book-g1">
<rect x="707.0" y="270" width="27" height="170" fill="#4a2d4a"/>
<rect x="708.0" y="270" width="25" height="2.5" fill="#e8d9b0"/>
</g>
<g class="book shelf-1 book-g1">
<rect x="734.7" y="295" width="49" height="145" fill="#4a2d4a"/>
<rect x="735.7" y="295" width="47" height="2.5" fill="#e8d9b0"/>
</g>
<g class="book shelf-1 book-g4">
<rect x="786.0" y="282" width="35" height="158" fill="#6b4a2d"/>
<rect x="787.0" y="282" width="33" height="2.5" fill="#e8d9b0"/>
<line x1="789.0" y1="420" x2="818.0" y2="420" stroke="#000" stroke-width="0.5" opacity="0.3"/>
</g>
<g class="book shelf-1 book-g4">
<rect x="875.1" y="252" width="47" height="188" fill="#2c4a6b"/>
<rect x="876.1" y="252" width="45" height="2.5" fill="#e8d9b0"/>
<rect x="875.1" y="279" width="47" height="12" fill="#f0e0b8" opacity="0.55"/>
</g>
<g class="book shelf-1 book-g5">
<rect x="923.4" y="324" width="28" height="116" fill="#8b3a3a"/>
<rect x="924.4" y="324" width="26" height="2.5" fill="#e8d9b0"/>
<rect x="923.4" y="364" width="28" height="7" fill="#f0e0b8" opacity="0.55"/>
</g>
<g class="book shelf-1 book-g1">
<rect x="952.4" y="243" width="26" height="197" fill="#d4c4a0"/>
<rect x="953.4" y="243" width="24" height="2.5" fill="#e8d9b0"/>
</g>
<g class="book shelf-1 book-g3">
<rect x="978.4" y="312" width="30" height="128" fill="#6b4a2d"/>
<rect x="979.4" y="312" width="28" height="2.5" fill="#e8d9b0"/>
<rect x="978.4" y="351" width="30" height="11" fill="#f0e0b8" opacity="0.55"/>
</g>
<g class="book shelf-1 book-g2">
<rect x="1009.3" y="241" width="48" height="199" fill="#d4c4a0"/>
<rect x="1010.3" y="241" width="46" height="2.5" fill="#e8d9b0"/>
<rect x="1009.3" y="268" width="48" height="10" fill="#111" opacity="0.55"/>
</g>
<g class="book shelf-1 book-g5">
<rect x="1059.5" y="244" width="47" height="196" fill="#8b3a3a"/>
<rect x="1060.5" y="244" width="45" height="2.5" fill="#e8d9b0"/>
</g>
<g class="book shelf-1 book-g0">
<rect x="1108.2" y="258" width="24" height="182" fill="#8b4a2d"/>
<rect x="1109.2" y="258" width="22" height="2.5" fill="#e8d9b0"/>
</g>
<g class="book shelf-1 book-g5">
<rect x="1134.4" y="256" width="38" height="184" fill="#9b7a2d"/>
<rect x="1135.4" y="256" width="36" height="2.5" fill="#e8d9b0"/>
</g>
<g class="book shelf-1 book-g0">
<rect x="1175.4" y="241" width="35" height="199" fill="#2c4a6b"/>
<rect x="1176.4" y="241" width="33" height="2.5" fill="#e8d9b0"/>
</g>
<g class="book shelf-1 book-g0">
<rect x="1210.8" y="276" width="22" height="164" fill="#3a3a3a"/>
<rect x="1211.8" y="276" width="20" height="2.5" fill="#e8d9b0"/>
<rect x="1210.8" y="288" width="22" height="2" fill="#c8a85a" opacity="0.8"/>
</g>
<g class="book shelf-1 book-g5">
<rect x="1233.0" y="236" width="39" height="204" fill="#9b7a2d"/>
<rect x="1234.0" y="236" width="37" height="2.5" fill="#e8d9b0"/>
</g>
<g class="book shelf-1 book-g2">
<rect x="1273.5" y="322" width="32" height="118" fill="#1f3a5f"/>
<rect x="1274.5" y="322" width="30" height="2.5" fill="#e8d9b0"/>
<rect x="1273.5" y="361" width="32" height="10" fill="#f0e0b8" opacity="0.55"/>
</g>
<g class="book shelf-1 book-g2">
<rect x="1307.6" y="246" width="22" height="194" fill="#d4c4a0"/>
<rect x="1308.6" y="246" width="20" height="2.5" fill="#e8d9b0"/>
<rect x="1307.6" y="286" width="22" height="10" fill="#111" opacity="0.55"/>
</g>
<g class="book shelf-1 book-g2">
<rect x="1331.4" y="284" width="42" height="156" fill="#7a4a2e"/>
<rect x="1332.4" y="284" width="40" height="2.5" fill="#e8d9b0"/>
<rect x="1331.4" y="316" width="42" height="11" fill="#f0e0b8" opacity="0.55"/>
<rect x="1331.4" y="294" width="42" height="2" fill="#c8a85a" opacity="0.8"/>
</g>
<g class="book shelf-1 book-g3">
<rect x="1373.8" y="270" width="45" height="170" fill="#7a4a2e"/>
<rect x="1374.8" y="270" width="43" height="2.5" fill="#e8d9b0"/>
<rect x="1373.8" y="297" width="45" height="14" fill="#f0e0b8" opacity="0.55"/>
<line x1="1376.8" y1="420" x2="1415.8" y2="420" stroke="#000" stroke-width="0.5" opacity="0.3"/>
</g>
<g class="book shelf-1 book-g4">
<rect x="1419.5" y="277" width="36" height="163" fill="#2d4a2d"/>
<rect x="1420.5" y="277" width="34" height="2.5" fill="#e8d9b0"/>
<rect x="1419.5" y="316" width="36" height="10" fill="#f0e0b8" opacity="0.55"/>
<rect x="1419.5" y="290" width="36" height="2" fill="#c8a85a" opacity="0.8"/>
</g>
<g class="book shelf-1 book-g3">
<rect x="1455.9" y="258" width="49" height="182" fill="#6b2d2d"/>
<rect x="1456.9" y="258" width="47" height="2.5" fill="#e8d9b0"/>
<rect x="1455.9" y="283" width="49" height="6" fill="#f0e0b8" opacity="0.55"/>
</g>
<g class="book shelf-1 book-g2">
<rect x="1505.5" y="266" width="41" height="174" fill="#1f3a5f"/>
<rect x="1506.5" y="266" width="39" height="2.5" fill="#e8d9b0"/>
<rect x="1505.5" y="308" width="41" height="13" fill="#f0e0b8" opacity="0.55"/>
</g>
<g class="book shelf-1 book-g4">
<rect x="1546.8" y="311" width="25" height="129" fill="#2c4a6b"/>
<rect x="1547.8" y="311" width="23" height="2.5" fill="#e8d9b0"/>
</g>
<g class="book shelf-1 book-g5">
<rect x="1573.9" y="317" width="46" height="123" fill="#6b2d2d"/>
<rect x="1574.9" y="317" width="44" height="2.5" fill="#e8d9b0"/>
<line x1="1576.9" y1="420" x2="1616.9" y2="420" stroke="#000" stroke-width="0.5" opacity="0.3"/>
</g>
<g class="book shelf-1 book-g4">
<rect x="1621.9" y="253" width="49" height="187" fill="#4a2d4a"/>
<rect x="1622.9" y="253" width="47" height="2.5" fill="#e8d9b0"/>
<rect x="1621.9" y="280" width="49" height="7" fill="#f0e0b8" opacity="0.55"/>
</g>
<g class="book shelf-1 book-g5">
<rect x="1673.4" y="323" width="45" height="117" fill="#6b4a2d"/>
<rect x="1674.4" y="323" width="43" height="2.5" fill="#e8d9b0"/>
<rect x="1673.4" y="356" width="45" height="14" fill="#f0e0b8" opacity="0.55"/>
</g>
<g class="book shelf-1 book-g1">
<rect x="1721.0" y="318" width="46" height="122" fill="#6b4a2d"/>
<rect x="1722.0" y="318" width="44" height="2.5" fill="#e8d9b0"/>
</g>
<g class="book shelf-1 book-g3">
<rect x="1767.2" y="255" width="29" height="185" fill="#5f5f2d"/>
<rect x="1768.2" y="255" width="27" height="2.5" fill="#e8d9b0"/>
</g>
<g class="book shelf-1 book-g0">
<rect x="1798.3" y="257" width="29" height="183" fill="#1f3a5f"/>
<rect x="1799.3" y="257" width="27" height="2.5" fill="#e8d9b0"/>
<rect x="1798.3" y="287" width="29" height="14" fill="#f0e0b8" opacity="0.55"/>
</g>
<g class="book shelf-1 book-g2">
<rect x="1829.9" y="272" width="40" height="168" fill="#6b4a2d"/>
<rect x="1830.9" y="272" width="38" height="2.5" fill="#e8d9b0"/>
<rect x="1829.9" y="307" width="40" height="9" fill="#f0e0b8" opacity="0.55"/>
<rect x="1829.9" y="285" width="40" height="2" fill="#c8a85a" opacity="0.8"/>
</g>
<g class="book shelf-2 book-g1">
<rect x="133.6" y="529" width="40" height="111" fill="#5f5f2d"/>
<rect x="134.6" y="529" width="38" height="2.5" fill="#e8d9b0"/>
<line x1="136.6" y1="620" x2="170.6" y2="620" stroke="#000" stroke-width="0.5" opacity="0.3"/>
</g>
<g class="book shelf-2 book-g2">
<rect x="208.1" y="483" width="32" height="157" fill="#2d4a2d"/>
<rect x="209.1" y="483" width="30" height="2.5" fill="#e8d9b0"/>
<rect x="208.1" y="525" width="32" height="8" fill="#f0e0b8" opacity="0.55"/>
</g>
<g class="book shelf-2 book-g1">
<rect x="241.4" y="462" width="47" height="178" fill="#6b2d2d"/>
<rect x="242.4" y="462" width="45" height="2.5" fill="#e8d9b0"/>
<rect x="241.4" y="495" width="47" height="10" fill="#f0e0b8" opacity="0.55"/>
</g>
<g class="book shelf-2 book-g5">
<rect x="289.1" y="527" width="42" height="113" fill="#9b7a2d"/>
<rect x="290.1" y="527" width="40" height="2.5" fill="#e8d9b0"/>
</g>
<g class="book shelf-2 book-g4">
<rect x="331.3" y="484" width="33" height="156" fill="#c8a85a"/>
<rect x="332.3" y="484" width="31" height="2.5" fill="#e8d9b0"/>
<line x1="334.3" y1="620" x2="361.3" y2="620" stroke="#000" stroke-width="0.5" opacity="0.3"/>
</g>
<g class="book shelf-2 book-g4">
<rect x="364.5" y="456" width="49" height="184" fill="#2c4a6b"/>
<rect x="365.5" y="456" width="47" height="2.5" fill="#e8d9b0"/>
</g>
<g class="book shelf-2 book-g3">
<rect x="415.1" y="469" width="52" height="171" fill="#a85c3a"/>
<rect x="416.1" y="469" width="50" height="2.5" fill="#e8d9b0"/>
<rect x="415.1" y="500" width="52" height="10" fill="#f0e0b8" opacity="0.55"/>
<line x1="418.1" y1="620" x2="464.1" y2="620" stroke="#000" stroke-width="0.5" opacity="0.3"/>
</g>
<g class="book shelf-2 book-g0">
<rect x="468.9" y="448" width="26" height="192" fill="#9b7a2d"/>
<rect x="469.9" y="448" width="24" height="2.5" fill="#e8d9b0"/>
<rect x="468.9" y="485" width="26" height="11" fill="#f0e0b8" opacity="0.55"/>
</g>
<g class="book shelf-2 book-g1">
<rect x="497.1" y="516" width="45" height="124" fill="#9b7a2d"/>
<rect x="498.1" y="516" width="43" height="2.5" fill="#e8d9b0"/>
</g>
<g class="book shelf-2 book-g4">
<rect x="1437.0" y="446" width="49" height="194" fill="#7a4a2e"/>
<rect x="1438.0" y="446" width="47" height="2.5" fill="#e8d9b0"/>
<rect x="1437.0" y="479" width="49" height="7" fill="#f0e0b8" opacity="0.55"/>
</g>
<g class="book shelf-2 book-g2">
<rect x="1488.0" y="444" width="34" height="196" fill="#c8a85a"/>
<rect x="1489.0" y="444" width="32" height="2.5" fill="#e8d9b0"/>
<rect x="1488.0" y="481" width="34" height="10" fill="#111" opacity="0.55"/>
</g>
<g class="book shelf-2 book-g4">
<rect x="1524.2" y="520" width="54" height="120" fill="#6b2d2d"/>
<rect x="1525.2" y="520" width="52" height="2.5" fill="#e8d9b0"/>
<rect x="1524.2" y="547" width="54" height="12" fill="#f0e0b8" opacity="0.55"/>
</g>
<g class="book shelf-2 book-g2">
<rect x="1580.0" y="471" width="52" height="169" fill="#d4c4a0"/>
<rect x="1581.0" y="471" width="50" height="2.5" fill="#e8d9b0"/>
</g>
<g class="book shelf-2 book-g3">
<rect x="1634.1" y="504" width="50" height="136" fill="#1f3a5f"/>
<rect x="1635.1" y="504" width="48" height="2.5" fill="#e8d9b0"/>
</g>
<g class="book shelf-2 book-g0">
<rect x="1684.3" y="471" width="51" height="169" fill="#1f3a5f"/>
<rect x="1685.3" y="471" width="49" height="2.5" fill="#e8d9b0"/>
<rect x="1684.3" y="494" width="51" height="8" fill="#f0e0b8" opacity="0.55"/>
</g>
<g class="book shelf-2 book-g4">
<rect x="1736.2" y="492" width="42" height="148" fill="#2c4a6b"/>
<rect x="1737.2" y="492" width="40" height="2.5" fill="#e8d9b0"/>
<rect x="1736.2" y="525" width="42" height="6" fill="#f0e0b8" opacity="0.55"/>
</g>
<g class="book shelf-2 book-g5">
<rect x="1778.7" y="496" width="43" height="144" fill="#1f3a5f"/>
<rect x="1779.7" y="496" width="41" height="2.5" fill="#e8d9b0"/>
<rect x="1778.7" y="535" width="43" height="10" fill="#f0e0b8" opacity="0.55"/>
<rect x="1778.7" y="506" width="43" height="2" fill="#c8a85a" opacity="0.8"/>
</g>
<g class="book shelf-2 book-g2">
<rect x="1822.0" y="509" width="39" height="131" fill="#6b2d2d"/>
<rect x="1823.0" y="509" width="37" height="2.5" fill="#e8d9b0"/>
<rect x="1822.0" y="547" width="39" height="8" fill="#f0e0b8" opacity="0.55"/>
<line x1="1825.0" y1="620" x2="1858.0" y2="620" stroke="#000" stroke-width="0.5" opacity="0.3"/>
<rect x="1822.0" y="517" width="39" height="2" fill="#c8a85a" opacity="0.8"/>
</g>
<g class="book nameplate book-g9">
  <rect x="829.0" y="474" width="320" height="170" fill="rgba(0,0,0,0.22)"/>
  <rect x="825.0" y="470" width="320" height="170" fill="#5a3a24"/>
  <rect x="835.0" y="480" width="300" height="150" fill="#c8a85a"/>
  <rect x="841.0" y="486" width="288" height="138" fill="#f2ead0"/>
  <rect x="841.0" y="486" width="288" height="138" fill="none" stroke="#5a3a24" stroke-width="1"/>
  <text x="985" y="553.0" text-anchor="middle" font-family="IM Fell English, serif" font-size="42" font-weight="400" fill="#2f4a35">Daniel Golliher</text>
  <text x="985" y="585.0" text-anchor="middle" font-family="IM Fell English, serif" font-style="italic" font-size="15" fill="#5a5040">(how to say my last name: &#8220;gol-yer&#8221;)</text>
</g>
<a href="#about" class="menu-book">
  <g class="book menu book-g10">
    <rect class="spine" x="1160.0" y="608.0" width="180" height="32" fill="#6b2d2d"/>
    <rect x="1160.0" y="610.0" width="3" height="28" fill="#e8d9b0" opacity="0.8"/>
    <rect x="1337.0" y="610.0" width="3" height="28" fill="#e8d9b0" opacity="0.8"/>
    <rect x="1167.0" y="613.0" width="166" height="1.5" fill="#c8a85a" opacity="0.85"/>
    <rect x="1167.0" y="633.5" width="166" height="1.5" fill="#c8a85a" opacity="0.85"/>
    <text x="1250.0" y="629.5" text-anchor="middle" font-family="IM Fell English SC, IM Fell English, serif" font-size="16" font-weight="400" letter-spacing="4" fill="#f0e0b8">ABOUT</text>
  </g>
</a>
<a href="#writing" class="menu-book">
  <g class="book menu book-g11">
    <rect class="spine" x="1156.0" y="574.0" width="200" height="32" fill="#2d4a2d"/>
    <rect x="1156.0" y="576.0" width="3" height="28" fill="#e8d9b0" opacity="0.8"/>
    <rect x="1353.0" y="576.0" width="3" height="28" fill="#e8d9b0" opacity="0.8"/>
    <rect x="1163.0" y="579.0" width="186" height="1.5" fill="#c8a85a" opacity="0.85"/>
    <rect x="1163.0" y="599.5" width="186" height="1.5" fill="#c8a85a" opacity="0.85"/>
    <text x="1256.0" y="595.5" text-anchor="middle" font-family="IM Fell English SC, IM Fell English, serif" font-size="16" font-weight="400" letter-spacing="4" fill="#f0e0b8">WRITING</text>
  </g>
</a>
<a href="/" class="menu-book">
  <g class="book menu book-g12">
    <rect class="spine" x="1161.0" y="540.0" width="170" height="32" fill="#1f3a5f"/>
    <rect x="1161.0" y="542.0" width="3" height="28" fill="#e8d9b0" opacity="0.8"/>
    <rect x="1328.0" y="542.0" width="3" height="28" fill="#e8d9b0" opacity="0.8"/>
    <rect x="1168.0" y="545.0" width="156" height="1.5" fill="#c8a85a" opacity="0.85"/>
    <rect x="1168.0" y="565.5" width="156" height="1.5" fill="#c8a85a" opacity="0.85"/>
    <text x="1246.0" y="561.5" text-anchor="middle" font-family="IM Fell English SC, IM Fell English, serif" font-size="16" font-weight="400" letter-spacing="4" fill="#f0e0b8">HOME</text>
  </g>
</a>
<g class="book photo book-g17">
  <rect x="639.0" y="509" width="180" height="135" fill="rgba(0,0,0,0.25)"/>
  <rect x="635.0" y="505" width="180" height="135" fill="#5a3a24"/>
  <rect x="640.0" y="510" width="170" height="125" fill="#c8a85a"/>
  <rect x="644.0" y="514" width="162" height="117" fill="#f2ead0"/>
  <image href="daniel.jpg" x="645.0" y="519.2" width="160" height="106.7" preserveAspectRatio="xMidYMid slice"/>
</g>
<g class="book boroughs book-g15">
  <rect x="578.0" y="543" width="100" height="100" fill="rgba(0,0,0,0.22)"/>
  <rect x="575.0" y="540" width="100" height="100" fill="#5a3a24"/>
  <rect x="581.0" y="546" width="88" height="88" fill="#f4ecd8"/>
  <image href="nyc-boroughs.png" x="585.0" y="550" width="80" height="80" preserveAspectRatio="xMidYMid meet"/>
</g>
<g class="book flag book-g16">
  <ellipse cx="1390" cy="640" rx="18" ry="2" fill="rgba(0,0,0,0.25)"/>
  <rect x="1376" y="633" width="28" height="7" fill="#5a3a24" rx="1.5"/>
  <rect x="1376" y="633" width="28" height="2" fill="#6b4a2e"/>
  <rect x="1389" y="510" width="2.5" height="123" fill="#8a6a3a"/>
  <circle cx="1390.25" cy="508" r="2.8" fill="#c8a85a"/>
  <rect x="1392" y="518" width="70" height="42" fill="#ffffff"/>
  <rect x="1392" y="518.00" width="70" height="3.23" fill="#b22234"/>
  <rect x="1392" y="524.46" width="70" height="3.23" fill="#b22234"/>
  <rect x="1392" y="530.92" width="70" height="3.23" fill="#b22234"/>
  <rect x="1392" y="537.38" width="70" height="3.23" fill="#b22234"/>
  <rect x="1392" y="543.85" width="70" height="3.23" fill="#b22234"/>
  <rect x="1392" y="550.31" width="70" height="3.23" fill="#b22234"/>
  <rect x="1392" y="556.77" width="70" height="3.23" fill="#b22234"/>
  <rect x="1392" y="518" width="28.00" height="22.62" fill="#3c3b6e"/>
  <circle cx="1397.00" cy="523.00" r="1.1" fill="white"/>
  <circle cx="1405.00" cy="523.00" r="1.1" fill="white"/>
  <circle cx="1413.00" cy="523.00" r="1.1" fill="white"/>
  <circle cx="1397.00" cy="529.50" r="1.1" fill="white"/>
  <circle cx="1405.00" cy="529.50" r="1.1" fill="white"/>
  <circle cx="1413.00" cy="529.50" r="1.1" fill="white"/>
  <circle cx="1397.00" cy="536.00" r="1.1" fill="white"/>
  <circle cx="1405.00" cy="536.00" r="1.1" fill="white"/>
  <circle cx="1413.00" cy="536.00" r="1.1" fill="white"/>
  <rect x="1392" y="518" width="70" height="42" fill="none" stroke="rgba(0,0,0,0.25)" stroke-width="0.5"/>
</g>
<g class="book pigeon book-g13">
  <ellipse cx="1246" cy="540" rx="34" ry="2.5" fill="rgba(0,0,0,0.22)"/>
  <line x1="1236" y1="532" x2="1234" y2="540" stroke="#b97a56" stroke-width="2.2" stroke-linecap="round"/>
  <line x1="1256" y1="532" x2="1258" y2="540" stroke="#b97a56" stroke-width="2.2" stroke-linecap="round"/>
  <path d="M 1272 505 L 1296 513 L 1296 525 L 1272 521 Z" fill="#556069"/>
  <ellipse cx="1246" cy="515" rx="32" ry="22" fill="#7c8b96"/>
  <ellipse cx="1236" cy="521" rx="17" ry="14" fill="#b2bec8" opacity="0.75"/>
  <path d="M 1232 499 Q 1250 495 1268 507 Q 1264 525 1242 523 Q 1226 513 1232 499 Z" fill="#6b7a85"/>
  <path d="M 1238 513 L 1262 514" stroke="#4a5560" stroke-width="0.8" opacity="0.7"/>
  <ellipse cx="1228" cy="499" rx="12" ry="11" fill="#4a5862"/>
  <ellipse cx="1226" cy="497" rx="8" ry="4" fill="#5a6975" opacity="0.7"/>
  <circle cx="1218" cy="490" r="11" fill="#5d6a76"/>
  <path d="M 1207 491 L 1197 493 L 1198 489 L 1207 488 Z" fill="#2e2620"/>
  <ellipse cx="1206" cy="487" rx="3.5" ry="1.8" fill="#d6cec4"/>
  <circle cx="1215" cy="488" r="2.2" fill="#ff9d2a"/>
  <circle cx="1215" cy="488" r="1.1" fill="#141414"/>
</g>
<rect x="80" y="40" width="16" height="650" fill="var(--frame, #5a3a24)"/>
<rect x="1893" y="40" width="16" height="650" fill="var(--frame, #5a3a24)"/>
<rect x="80" y="40" width="1829" height="16" fill="var(--frame, #5a3a24)"/>
<rect x="80" y="674" width="1829" height="16" fill="var(--frame, #5a3a24)"/>
<line x1="83" y1="60" x2="93" y2="73" stroke="rgba(0,0,0,0.12)" stroke-width="0.6"/>
<line x1="83" y1="100" x2="93" y2="113" stroke="rgba(0,0,0,0.12)" stroke-width="0.6"/>
<line x1="83" y1="140" x2="93" y2="147" stroke="rgba(0,0,0,0.12)" stroke-width="0.6"/>
<line x1="83" y1="180" x2="93" y2="186" stroke="rgba(0,0,0,0.12)" stroke-width="0.6"/>
<line x1="83" y1="220" x2="93" y2="233" stroke="rgba(0,0,0,0.12)" stroke-width="0.6"/>
<line x1="83" y1="260" x2="93" y2="273" stroke="rgba(0,0,0,0.12)" stroke-width="0.6"/>
<line x1="83" y1="300" x2="93" y2="305" stroke="rgba(0,0,0,0.12)" stroke-width="0.6"/>
<line x1="83" y1="340" x2="93" y2="351" stroke="rgba(0,0,0,0.12)" stroke-width="0.6"/>
<line x1="83" y1="380" x2="93" y2="394" stroke="rgba(0,0,0,0.12)" stroke-width="0.6"/>
<line x1="83" y1="420" x2="93" y2="426" stroke="rgba(0,0,0,0.12)" stroke-width="0.6"/>
<line x1="83" y1="460" x2="93" y2="465" stroke="rgba(0,0,0,0.12)" stroke-width="0.6"/>
<line x1="83" y1="500" x2="93" y2="507" stroke="rgba(0,0,0,0.12)" stroke-width="0.6"/>
<line x1="83" y1="540" x2="93" y2="546" stroke="rgba(0,0,0,0.12)" stroke-width="0.6"/>
<line x1="83" y1="580" x2="93" y2="591" stroke="rgba(0,0,0,0.12)" stroke-width="0.6"/>
<line x1="83" y1="620" x2="93" y2="627" stroke="rgba(0,0,0,0.12)" stroke-width="0.6"/>
<line x1="83" y1="660" x2="93" y2="666" stroke="rgba(0,0,0,0.12)" stroke-width="0.6"/>
<line x1="1896" y1="60" x2="1906" y2="73" stroke="rgba(0,0,0,0.12)" stroke-width="0.6"/>
<line x1="1896" y1="100" x2="1906" y2="109" stroke="rgba(0,0,0,0.12)" stroke-width="0.6"/>
<line x1="1896" y1="140" x2="1906" y2="148" stroke="rgba(0,0,0,0.12)" stroke-width="0.6"/>
<line x1="1896" y1="180" x2="1906" y2="187" stroke="rgba(0,0,0,0.12)" stroke-width="0.6"/>
<line x1="1896" y1="220" x2="1906" y2="229" stroke="rgba(0,0,0,0.12)" stroke-width="0.6"/>
<line x1="1896" y1="260" x2="1906" y2="268" stroke="rgba(0,0,0,0.12)" stroke-width="0.6"/>
<line x1="1896" y1="300" x2="1906" y2="312" stroke="rgba(0,0,0,0.12)" stroke-width="0.6"/>
<line x1="1896" y1="340" x2="1906" y2="355" stroke="rgba(0,0,0,0.12)" stroke-width="0.6"/>
<line x1="1896" y1="380" x2="1906" y2="395" stroke="rgba(0,0,0,0.12)" stroke-width="0.6"/>
<line x1="1896" y1="420" x2="1906" y2="426" stroke="rgba(0,0,0,0.12)" stroke-width="0.6"/>
<line x1="1896" y1="460" x2="1906" y2="475" stroke="rgba(0,0,0,0.12)" stroke-width="0.6"/>
<line x1="1896" y1="500" x2="1906" y2="508" stroke="rgba(0,0,0,0.12)" stroke-width="0.6"/>
<line x1="1896" y1="540" x2="1906" y2="549" stroke="rgba(0,0,0,0.12)" stroke-width="0.6"/>
<line x1="1896" y1="580" x2="1906" y2="593" stroke="rgba(0,0,0,0.12)" stroke-width="0.6"/>
<line x1="1896" y1="620" x2="1906" y2="635" stroke="rgba(0,0,0,0.12)" stroke-width="0.6"/>
<line x1="1896" y1="660" x2="1906" y2="669" stroke="rgba(0,0,0,0.12)" stroke-width="0.6"/>
</svg>